<?xml version="1.0" encoding="UTF-8"?>
<!DOCTYPE svg PUBLIC "-//W3C//DTD SVG 1.1//EN" "http://www.w3.org/Graphics/SVG/1.1/DTD/svg11.dtd">
<!-- Creator: CorelDRAW -->
<svg xmlns="http://www.w3.org/2000/svg" xml:space="preserve" width="71.2132mm" height="20mm" version="1.1" style="shape-rendering:geometricPrecision; text-rendering:geometricPrecision; image-rendering:optimizeQuality; fill-rule:evenodd; clip-rule:evenodd"
viewBox="0 0 7114.89 1998.19"
 xmlns:xlink="http://www.w3.org/1999/xlink"
 xmlns:xodm="http://www.corel.com/coreldraw/odm/2003">
 <defs>
  <style type="text/css">
   <![CDATA[
    .fil3 {fill:#2B2D41;fill-rule:nonzero}
    .fil1 {fill:#3F0FAF;fill-rule:nonzero}
    .fil5 {fill:#A265F9;fill-rule:nonzero}
    .fil4 {fill:white;fill-rule:nonzero}
    .fil2 {fill:url(#id0);fill-rule:nonzero}
    .fil0 {fill:url(#id1);fill-rule:nonzero}
   ]]>
  </style>
  <linearGradient id="id0" gradientUnits="userSpaceOnUse" x1="6392.66" y1="1134.29" x2="6281.32" y2="64.68">
   <stop offset="0" style="stop-opacity:1; stop-color:#965BF0"/>
   <stop offset="1" style="stop-opacity:1; stop-color:#B480FE"/>
  </linearGradient>
  <linearGradient id="id1" gradientUnits="userSpaceOnUse" x1="5608.72" y1="709.28" x2="4452.8" y2="1596.45">
   <stop offset="0" style="stop-opacity:1; stop-color:#2B0584"/>
   <stop offset="1" style="stop-opacity:1; stop-color:#4C17C8"/>
  </linearGradient>
 </defs>
 <g id="Camada_x0020_1">
  <metadata id="CorelCorpID_0Corel-Layer"/>
  <path class="fil0" d="M5153.65 226.97c121.73,-398.14 676.73,-177.17 499.69,187.85 -33.56,95.88 -78.98,202.43 -116.04,298.89l-237.23 618.43 -126.94 326.75c-43.25,110.72 -81.92,261.89 -195.33,313.93 -131.47,60.33 -300.73,10.7 -362.39,-123.8 -21.84,-47.42 -27.73,-100.64 -16.8,-151.69 14.87,-71.49 126.44,-341.22 159.86,-429.71l395.17 -1040.65z"/>
  <path class="fil1" d="M5858.29 570c259.79,-265.98 402.35,113.27 432.26,330.54 -112.94,301.01 -227.54,601.41 -343.74,901.17 -32.61,82.8 -58.3,135.14 -146.1,173.54 -183.16,80.14 -412.82,-59.21 -373.87,-269.73 10.51,-56.83 44.45,-137.13 67.04,-193.7 124.78,-312.08 237.4,-630.8 364.41,-941.83z"/>
  <path class="fil2" d="M5858.29 570c15.43,-51.28 37.7,-111.95 58.38,-161.37 37.06,-88.77 65.61,-194.04 114.92,-275.7 106.26,-176 381.36,-148.1 465.02,34.53 29.35,64.15 52.57,127.19 77.46,191.79l124.07 320.59c30.94,79.11 131.15,312.47 149.04,380.33 87.25,191.16 155.48,397.15 239.47,592.42 110.23,256.38 -122.72,410.01 -348.67,314.26 -113.41,-48.07 -176.4,-277.44 -215.06,-395.24 -75.56,-228.25 -147.4,-447.05 -232.39,-671.08 -29.91,-217.27 -172.47,-596.52 -432.26,-330.54z"/>
  <g id="_2741227969392">
   <path class="fil3" d="M3830.4 609.66c158.83,-15.84 262.71,20.01 370.31,135.62l-0.56 -120.46 160.88 0.03 0.28 488.82c0.3,144.26 17.54,347.55 -69.06,467.52 -131.67,182.43 -438.5,190.57 -635.84,126.53 -65.28,-21.19 -113.34,-49.99 -168.62,-88.31 27.68,-33.9 56.02,-67.25 85.01,-100.02l8.74 0.6c124.91,112.01 416.85,144.22 547.71,21.07 73.78,-69.44 67.26,-171.82 68.37,-265.15 -73.39,77.58 -139.04,117.58 -250.1,134.37 -386.9,58.48 -653.5,-321.61 -418.9,-649.07 66.9,-93.37 186.11,-138.51 301.78,-151.54z"/>
   <path class="fil4" d="M3880.13 734.73c144.67,-12.95 296.95,66.32 317.94,220.87 26.75,196.9 -73.27,303.92 -263.49,330.21 -391.94,42.2 -455.8,-503.83 -54.44,-551.08z"/>
   <path class="fil3" d="M2862.64 609.66c111.65,-11.82 255.18,4.22 347.09,72.2 130.72,96.68 109.57,271.58 109.14,415.64l-0.45 316.08 -159.5 -0.41 -0.37 -111.31c-159.89,169.32 -548.29,196.29 -659.6,-35.62 -89.56,-368.8 434.34,-320.07 657.98,-320.03 -5.16,-164.96 -84.98,-217.36 -249.66,-215.98 -106.28,0.9 -199.08,35.45 -279.4,105.49 -28.78,-32 -67.56,-69.55 -98.26,-100.84 111.38,-82.47 194.12,-113.25 333.03,-125.22z"/>
   <path class="fil4" d="M2878.06 1057.32c88.18,-4 189.16,-1.82 278.46,-1.81 0.58,160.62 -65.56,221.41 -224.07,248.62 -76.6,8.33 -160.61,13.18 -226.28,-31.02 -87.02,-58.56 -57.53,-153.32 29.6,-188.41 52.31,-21.07 88.21,-22.59 142.31,-27.37z"/>
   <path class="fil3" d="M395.92 609.66c223.18,-27.5 447.26,78.55 490.61,315.03 9.53,51.97 9.95,90.54 9.82,142.81l-729.09 0.29c62.83,255.78 310.59,284.04 520.92,183.72 28.35,-16.69 38.47,-25.16 63.63,-46.82 31.61,29.52 69.88,61.52 102.79,90.36 -95.47,82.46 -161.69,108.78 -294.22,130.74 -410.98,68.1 -719.25,-293.71 -472.05,-662.78 61.36,-91.61 192.79,-141.46 307.59,-153.35z"/>
   <path class="fil4" d="M450.97 728.93c160.83,-5.18 247.1,76.33 283.2,224.77l-269.61 0.37 -294.6 -0.6c40.31,-157.21 125.28,-208.3 281.01,-224.54z"/>
   <path class="fil3" d="M1317.19 609.57l4.47 -0.45c150.35,-13.63 303.24,17.73 420.83,116.75 -28.28,32.96 -60.17,65.22 -90.28,96.71 -67.29,-56.28 -145.44,-86.67 -232.93,-92.87 -67.76,-4.79 -171.59,-1.11 -224.44,49.05 -17,16.15 -25.38,37.88 -24.45,61.25 5.35,134.61 409.99,79.41 550.78,209.22 36.82,33.26 58.33,80.21 59.49,129.81 5.04,197.66 -233.32,249.49 -387.83,251.46 -168.46,-1.54 -283.92,-28.09 -419.63,-134.49 36.4,-36.63 62.24,-67.9 95.05,-107.63 5.2,5.28 10.52,10.44 15.95,15.49 108.26,100.34 383.06,154.78 509.17,41.68 10.82,-9.71 31.06,-50.06 24.92,-63.04 -56.82,-120.15 -276.54,-93.65 -387.73,-133.26 -114.62,-37.63 -222.62,-70.54 -223.56,-207.03 -1.14,-165.46 174.37,-219.7 310.2,-232.66z"/>
   <path class="fil3" d="M1970.72 383.19l161.88 -0.71 0.18 242.55 271.13 0.49 -0.8 124.01 -269.72 0.05c0.52,98.24 -19.73,441.47 24.55,506.86 63.28,93.42 176.89,11.49 237.32,25.23l8.26 16.51c10.6,28.25 21.09,71.25 29.38,101.31 -238.66,68.36 -468.79,37.22 -463.73,-257.74 2.2,-128.14 0.14,-262.86 0.56,-391.61l-151.26 -0.45c1.33,-40.48 0.84,-83.57 1.1,-124.28l150.98 -0.39 0.18 -241.82z"/>
  </g>
  <ellipse class="fil5" cx="5422.63" cy="266.95" rx="269.79" ry="266.95"/>
 </g>
</svg>
