<?xml version="1.0" encoding="UTF-8"?>
<!DOCTYPE svg PUBLIC "-//W3C//DTD SVG 1.1//EN" "http://www.w3.org/Graphics/SVG/1.1/DTD/svg11.dtd">
<!-- Creator: CorelDRAW -->
<svg xmlns="http://www.w3.org/2000/svg" xml:space="preserve" width="25.1323mm" height="20mm" version="1.1" style="shape-rendering:geometricPrecision; text-rendering:geometricPrecision; image-rendering:optimizeQuality; fill-rule:evenodd; clip-rule:evenodd"
viewBox="0 0 181.13 144.14"
 xmlns:xlink="http://www.w3.org/1999/xlink"
 xmlns:xodm="http://www.corel.com/coreldraw/odm/2003">
 <defs>
  <style type="text/css">
   <![CDATA[
    .fil0 {fill:#005B85}
    .fil2 {fill:white}
    .fil6 {fill:#00AAED;fill-rule:nonzero}
    .fil5 {fill:white;fill-rule:nonzero}
    .fil1 {fill:url(#id0)}
    .fil4 {fill:url(#id1)}
    .fil3 {fill:url(#id2)}
   ]]>
  </style>
  <linearGradient id="id0" gradientUnits="userSpaceOnUse" x1="111.22" y1="29.69" x2="104.67" y2="49.94">
   <stop offset="0" style="stop-opacity:1; stop-color:#003852"/>
   <stop offset="1" style="stop-opacity:1; stop-color:#005B85"/>
  </linearGradient>
  <linearGradient id="id1" gradientUnits="userSpaceOnUse" xlink:href="#id0" x1="56.91" y1="21.62" x2="50.51" y2="44.01">
  </linearGradient>
  <linearGradient id="id2" gradientUnits="userSpaceOnUse" x1="158.75" y1="121.52" x2="112.78" y2="2.44">
   <stop offset="0" style="stop-opacity:1; stop-color:#B1D400"/>
   <stop offset="0.309804" style="stop-opacity:1; stop-color:#04BF64"/>
   <stop offset="0.6" style="stop-opacity:1; stop-color:#0698C4"/>
   <stop offset="1" style="stop-opacity:1; stop-color:#00AAED"/>
  </linearGradient>
 </defs>
 <g id="Camada_x0020_1">
  <metadata id="CorelCorpID_0Corel-Layer"/>
  <path class="fil0" d="M91.03 40.91c18.64,-19.09 28.87,8.13 31.02,23.72 -8.11,21.6 -16.33,43.16 -24.67,64.67 -2.34,5.94 -4.18,9.7 -10.48,12.45 -13.14,5.75 -29.63,-4.25 -26.83,-19.36 0.75,-4.08 3.19,-9.84 4.81,-13.9 8.96,-22.4 17.04,-45.27 26.15,-67.59z"/>
  <path class="fil1" d="M91.09 40.63c18.62,-19.26 28.83,8.2 30.97,23.93 -1.9,5.12 -3.81,10.25 -5.73,15.37l-0.3 -0.8c-2.13,-15.59 -12.19,-42.71 -30.5,-24.4 1.82,-4.72 3.67,-9.42 5.56,-14.1z"/>
  <path class="fil2" d="M90.93 40.94c1.11,-3.71 2.7,-8.1 4.18,-11.68 2.66,-6.43 4.7,-14.05 8.23,-19.96 7.61,-12.74 27.33,-10.72 33.32,2.5 2.1,4.64 3.77,9.21 5.55,13.88l8.89 23.21c2.22,5.73 9.4,22.62 10.68,27.53 6.25,13.84 11.14,28.75 17.16,42.89 7.9,18.56 -8.79,29.68 -24.98,22.75 -8.13,-3.48 -12.64,-20.08 -15.41,-28.61 -5.41,-16.52 -10.56,-32.36 -16.65,-48.58 -2.14,-15.73 -12.36,-43.18 -30.97,-23.93z"/>
  <path class="fil3" d="M91.09 40.63c1.11,-3.71 2.7,-8.1 4.18,-11.68 2.66,-6.43 4.7,-14.05 8.23,-19.96 7.61,-12.74 27.33,-10.72 33.32,2.5 2.1,4.64 3.77,9.21 5.55,13.88l8.89 23.21c2.22,5.73 9.4,22.62 10.68,27.53 6.25,13.84 11.14,28.75 17.16,42.89 7.9,18.56 -8.79,29.68 -24.98,22.75 -8.13,-3.48 -12.64,-20.08 -15.41,-28.61 -5.41,-16.52 -10.56,-32.36 -16.65,-48.58 -2.14,-15.73 -12.36,-43.18 -30.97,-23.93z"/>
  <path class="fil0" d="M40.21 16.29c8.73,-28.57 48.56,-12.71 35.86,13.48 -2.41,6.88 -5.67,14.53 -8.33,21.45l-17.02 44.38 -9.11 23.45c-3.1,7.95 -5.88,18.79 -14.02,22.53 -9.43,4.33 -21.58,0.77 -26,-8.88 -1.57,-3.4 -1.99,-7.22 -1.21,-10.89 1.07,-5.13 9.07,-24.49 11.47,-30.84l28.36 -74.68z"/>
  <path class="fil4" d="M40.21 16.29c0.38,-1.23 0.82,-2.38 1.3,-3.45 3.68,-2.49 8.13,-3.94 12.92,-3.94 11.28,0 20.66,8.06 22.58,18.68 -0.28,0.72 -0.59,1.46 -0.95,2.2 -2.23,6.36 -5.18,13.38 -7.71,19.87 -3.86,2.92 -8.68,4.65 -13.92,4.65 -10.67,0 -19.65,-7.22 -22.21,-16.99l7.98 -21.02z"/>
  <ellipse class="fil5" cx="59.4" cy="19.44" rx="19.36" ry="19.16"/>
  <ellipse class="fil6" cx="59.51" cy="19.16" rx="19.36" ry="19.16"/>
 </g>
</svg>
