<?xml version="1.0" encoding="UTF-8"?>
<!DOCTYPE svg PUBLIC "-//W3C//DTD SVG 1.1//EN" "http://www.w3.org/Graphics/SVG/1.1/DTD/svg11.dtd">
<!-- Creator: CorelDRAW -->
<svg xmlns="http://www.w3.org/2000/svg" xml:space="preserve" width="125.147mm" height="40mm" version="1.1" style="shape-rendering:geometricPrecision; text-rendering:geometricPrecision; image-rendering:optimizeQuality; fill-rule:evenodd; clip-rule:evenodd"
viewBox="0 0 12553.7 4012.46"
 xmlns:xlink="http://www.w3.org/1999/xlink"
 xmlns:xodm="http://www.corel.com/coreldraw/odm/2003">
 <defs>
  <style type="text/css">
   <![CDATA[
    .fil0 {fill:#005B85}
    .fil4 {fill:#00AAED;fill-rule:nonzero}
    .fil5 {fill:#2B2D41;fill-rule:nonzero}
    .fil1 {fill:url(#id0)}
    .fil2 {fill:url(#id1)}
    .fil3 {fill:url(#id2)}
   ]]>
  </style>
  <linearGradient id="id0" gradientUnits="userSpaceOnUse" x1="10603.28" y1="828.27" x2="10420.75" y2="1393.05">
   <stop offset="0" style="stop-opacity:1; stop-color:#003852"/>
   <stop offset="1" style="stop-opacity:1; stop-color:#005B85"/>
  </linearGradient>
  <linearGradient id="id1" gradientUnits="userSpaceOnUse" x1="11929.39" y1="3390.11" x2="10646.84" y2="68.07">
   <stop offset="0" style="stop-opacity:1; stop-color:#B1D400"/>
   <stop offset="0.309804" style="stop-opacity:1; stop-color:#04BF64"/>
   <stop offset="0.6" style="stop-opacity:1; stop-color:#0698C4"/>
   <stop offset="1" style="stop-opacity:1; stop-color:#00AAED"/>
  </linearGradient>
  <linearGradient id="id2" gradientUnits="userSpaceOnUse" xlink:href="#id0" x1="9088.36" y1="603" x2="8909.71" y2="1227.75">
  </linearGradient>
 </defs>
 <g id="Camada_x0020_1">
  <metadata id="CorelCorpID_0Corel-Layer"/>
  <g id="_2373397988496">
   <path class="fil0" d="M10040.03 1141.13c520.1,-532.5 805.49,226.77 865.38,661.73 -226.1,602.62 -455.54,1204.02 -688.17,1804.14 -65.28,165.77 -116.71,270.55 -292.48,347.42 -366.7,160.43 -826.47,-118.54 -748.49,-539.99 21.05,-113.76 88.98,-274.54 134.21,-387.78 249.82,-624.79 475.28,-1262.86 729.55,-1885.53z"/>
   <g>
    <path class="fil1" d="M10041.82 1133.52c519.31,-537.16 804.27,228.75 864.07,667.52 -53.09,142.97 -106.37,285.88 -159.84,428.72l-8.32 -22.21c-59.29,-435.04 -339.97,-1191.46 -850.94,-680.68 50.75,-131.61 102.27,-262.82 155.03,-393.35z"/>
    <path class="fil2" d="M10041.82 1133.52c30.84,-103.55 75.36,-226.08 116.69,-325.88 74.09,-179.27 131.16,-391.86 229.72,-556.77 212.4,-355.44 762.32,-299.09 929.57,69.74 58.67,129.55 105.09,256.85 154.85,387.33l248.01 647.42c61.84,159.77 262.15,631.03 297.93,768.07 174.4,386.06 310.81,802.05 478.69,1196.4 220.34,517.76 -245.31,828.02 -696.97,634.64 -226.7,-97.08 -352.62,-560.28 -429.89,-798.19 -151.04,-460.95 -294.64,-902.82 -464.54,-1355.25 -59.79,-438.77 -344.75,-1204.68 -864.07,-667.52z"/>
   </g>
   <g>
    <path class="fil0" d="M8622.44 454.39c243.66,-797.06 1354.62,-354.7 1000.24,376.07 -67.19,191.95 -158.09,405.27 -232.27,598.39l-474.87 1238.09 -254.09 654.15c-86.57,221.67 -163.98,524.3 -390.99,628.48 -263.16,120.79 -601.97,21.42 -725.4,-247.84 -43.72,-94.95 -55.52,-201.49 -33.62,-303.69 29.77,-143.13 253.09,-683.13 319.99,-860.28l791.01 -2083.38z"/>
    <path class="fil3" d="M8622.44 454.39c10.52,-34.42 22.76,-66.36 36.33,-96.24 102.66,-69.4 226.77,-110.01 360.49,-110.01 314.7,0 576.35,224.82 629.89,521.01 -7.73,20.2 -16.43,40.62 -26.46,61.31 -62.12,177.48 -144.51,373.2 -215.21,554.35 -107.67,81.44 -242.23,129.86 -388.21,129.86 -297.78,0 -548.05,-201.29 -619.46,-473.87l222.65 -586.41z"/>
    <ellipse class="fil4" cx="9160.87" cy="534.43" rx="540.04" ry="534.43"/>
   </g>
   <path class="fil5" d="M7101.97 2562.16c-41.11,30.54 -84.15,57.06 -128.33,79.86 -137.07,70.75 -279.96,95.23 -414.54,95.23 -137.63,0 -270.24,-24.96 -375.06,-95.11 -91.04,-60.93 -156.89,-145.38 -189.59,-257.79 -32.74,-112.52 -28.59,-236.36 4.56,-366.7 33.03,-129.86 91.86,-253.12 181.11,-365.42 89.07,-112.08 196.67,-196.64 318.13,-257.43 138.55,-69.33 281.38,-94.29 417.16,-94.29 135.8,0 269.33,23.29 372.57,93.08 42.49,28.72 79.9,63.5 110.36,105.06l40.99 -161.14 228.05 0 -337.96 1328.73c-9.34,36.73 -19.64,73.51 -31.62,110.14 -11.59,35.42 -26.03,70.47 -41.73,105.19 -43.67,96.54 -104.19,183.48 -187.56,253.21 -86.02,71.95 -182.93,118 -280.7,146.85 -121.91,35.98 -246.87,47.5 -364.04,47.5 -84.86,0 -166.34,-10.4 -243.86,-30.8 -75.77,-19.94 -145.23,-51.72 -205.6,-96.65 -59.17,-44.03 -104.11,-101.44 -134,-172.39l-6.44 -15.28 318.13 0c24.54,25.07 54.29,44.8 88.57,59.76 72.07,31.46 150.76,47.98 235.95,47.98 92.81,0 199.88,-10.88 295.99,-52.47 74.8,-32.37 140.25,-80.85 191.86,-151.21 56.72,-77.33 90.65,-168.03 111.73,-254.2l25.86 -101.68zm-469.18 -24.9c95.99,0 201.22,-15.75 299.1,-67.07 83.09,-43.57 154.15,-104.37 211.4,-184.11 60.23,-83.9 99.29,-175.04 123.04,-268.42 23.8,-93.58 31.9,-186.04 13.93,-270.02 -16.86,-78.87 -56.76,-138.46 -117.42,-181.26 -71.17,-50.24 -166.99,-65.88 -261.79,-65.88 -97.19,0 -203.39,16.15 -302.42,68.28 -83.3,43.85 -154.77,104.33 -212,184.49 -59.1,82.79 -98.11,172.29 -121.53,264.37 -23.63,92.88 -29.78,182.75 -11.87,265.88 17.2,79.86 57.28,141.11 118.02,185.48 70.87,51.75 165.99,68.25 261.54,68.25z"/>
   <path class="fil5" d="M5570.72 1821.85c-3.8,-86.84 -27.46,-172.89 -94.55,-232.64 -86.75,-77.28 -244.21,-89.53 -354.46,-89.53 -100.34,0 -204.59,14.4 -295.5,59.08 -59.27,29.13 -104.88,70.62 -137.37,124.15l-288.87 0 0.71 -2.09c43.13,-127.06 130.25,-218.42 247.6,-281.45 143.12,-76.86 316.39,-98.85 476.65,-98.85 137.9,0 282.92,16.3 411.69,68.22 101.52,40.93 190.01,104.21 243.73,201.66 22.81,41.39 37.26,85.84 43.7,132.66 6.62,48.11 9.82,96.65 9.82,145.21l0 829.15 -241.82 0 0 -191.07c-54.71,58.04 -120.25,103.13 -192.81,137.46 -141.33,66.86 -299.85,90 -454.99,90 -111.85,0 -230.73,-12.53 -335.31,-54.46 -78.92,-31.65 -154.44,-77.86 -206.05,-146.94 -44.72,-59.86 -69.17,-127.13 -69.17,-202.01 0,-70.13 18.18,-135.79 60.63,-191.97 42.53,-56.29 99,-97.85 161.95,-128.63 73.72,-36.06 152.99,-60.06 233.47,-75.27 97.3,-18.4 195.8,-31.91 294.13,-43.42 104.85,-12.28 209.85,-23.28 314.98,-32.8 57.31,-5.18 114.59,-10.59 171.83,-16.46zm-3.48 186.68c-51.44,4.82 -102.91,9.43 -154.38,13.85 -92.47,7.94 -184.83,17.19 -277.03,27.86 -81.89,9.47 -164.19,20.87 -244.98,37.39 -48.24,9.86 -95.31,24.52 -140.85,43.23 -40.69,16.73 -77.9,40.1 -108.14,72.34 -28.14,30 -40.5,66.17 -40.5,107.2 0,37.47 13.87,71.28 35.35,101.51 27.74,39.05 72.65,65.28 116.03,83.29 66.28,27.54 147.9,34.01 218.94,34.01 95.89,0 194.6,-11.24 285.21,-43.97 72.16,-26.08 140.47,-64.08 194.27,-119.58 46.48,-47.96 79.49,-103.78 94.5,-169.07l0.12 -0.53 0.16 -0.53c13.38,-43.61 19.34,-89.39 20.3,-134.92 0.37,-17.35 0.72,-34.71 1,-52.07z"/>
   <path class="fil5" d="M3537.75 1520.28l-370.79 0 0 -183.38 370.79 0 0 -363.88 264.69 0 0 363.88 531.3 0 0 183.38 -531.3 0 0 660.32c0,45.58 0.67,91.25 2.66,136.79 1.43,32.78 10.76,62.92 29.8,89.6 41.09,57.58 105.73,82.29 173.61,90.79 100.05,12.52 208.48,5.07 308.21,-7.28l17.02 -2.11 0 186.81 -12.82 2.02c-96.18,15.17 -193.39,21.69 -290.72,18.37 -87.61,-2.99 -175.79,-16.51 -258.32,-47.01 -72.02,-26.63 -134.6,-69.36 -177.07,-134.54 -30.55,-46.88 -49.72,-98.89 -52.75,-155.12 -3.06,-56.95 -4.31,-114.02 -4.31,-171.05l0 -667.6z"/>
   <path class="fil5" d="M2446.67 2712.59c-176.1,0 -364.52,-22.98 -523.65,-101.08 -123.14,-60.44 -220.06,-149.92 -256.2,-282.17l297.56 0c34.54,56.72 91.02,96.53 152.7,125.36 105.45,49.28 227,64.81 342.83,64.81 102.82,0 221.62,-11.98 313.43,-60.81 64.13,-34.11 109.29,-82.81 109.29,-156.8 0,-33.29 -8.82,-64.09 -32.63,-88.52 -30.82,-31.63 -102.92,-54.65 -144.71,-66.64 -110.15,-31.61 -226.99,-54.96 -339.47,-77.31 -126.72,-25.19 -260.89,-54.62 -382.65,-97.63 -69.65,-24.61 -151.48,-61.54 -201.56,-116.63 -42.71,-46.98 -61.84,-103.17 -61.84,-165.81 0,-80.96 32.29,-149.75 90.59,-206.87 66.87,-65.54 155.11,-107.33 244.57,-134.79 114.96,-35.28 238.59,-47.19 358.66,-47.19 123.08,0 248.31,12.97 366.29,48.38 95.38,28.63 188.25,71.69 262.83,137.5 60.58,53.45 102.72,118.12 118.37,195.85l-294.48 0c-26.6,-53.27 -73.68,-92.03 -129.98,-120.84 -98.46,-50.4 -216.75,-66.1 -326.59,-67.8 -99.63,-1.54 -211.37,7.99 -302.25,51.03 -57.52,27.24 -110.27,68.84 -110.27,136.25 0,31.74 13.59,56.74 37.7,77.48 36.18,31.12 105.2,53.6 150.7,66.76 104.05,30.08 215.03,51.39 321.59,71.2 128.81,23.95 266.44,53.11 389.58,97.72 72.64,26.32 155.83,65.54 206.67,124.56 44.54,51.71 63.23,113.7 63.23,180.87 0,138.5 -74.96,236.72 -195.27,304.72 -153.17,86.59 -351.15,108.39 -525.02,108.39z"/>
   <path class="fil5" d="M286.61 2072.17c10.67,118.62 52.52,225.57 142.52,307.4 112.88,102.63 266.89,132.66 415.31,132.66 110.3,0 221.71,-17.13 322.38,-63.67 64.07,-29.62 119.71,-68.97 165.96,-119.22l303.83 0 3.62 1.05 -10.34 17.02c-74.57,122.81 -182.49,210.4 -312.21,270.76 -145.66,67.78 -303.4,95.64 -463.5,95.64 -153.46,0 -309.23,-22.57 -449.84,-86.27 -120.8,-54.74 -223.62,-134.16 -297.89,-244.34 -74.82,-110.98 -106.44,-236.9 -106.44,-369.97 0,-135.33 30.07,-265.26 104.7,-379.49 72.67,-111.23 173.99,-191.74 294.72,-246.92 139.08,-63.57 292.98,-86.29 445.02,-86.29 153.41,0 310.67,22.91 449.68,90.5 120.98,58.82 217.84,144.78 284.08,261.74 70.11,123.81 92.93,263.95 87.97,404.67l-0.52 14.74 -1379.04 0zm1096.76 -179.74c-15.88,-103.02 -54.67,-199.56 -132.9,-271.91 -106.87,-98.82 -258.54,-125.71 -399.53,-125.71 -149.66,0 -307.93,29.08 -421.79,133.05 -77.83,71.08 -119.75,162.35 -136.53,264.56l1090.74 0z"/>
  </g>
 </g>
</svg>
